<svg width="14" height="14" viewBox="0 0 14 14" fill="none" xmlns="http://www.w3.org/2000/svg">
<path d="M6.99984 1.16663C10.2216 1.16663 12.8332 3.77821 12.8332 6.99996C12.8332 10.2217 10.2216 12.8333 6.99984 12.8333C3.77809 12.8333 1.1665 10.2217 1.1665 6.99996C1.1665 3.77821 3.77809 1.16663 6.99984 1.16663ZM6.99984 3.49996C6.84513 3.49996 6.69675 3.56142 6.58736 3.67081C6.47796 3.78021 6.4165 3.92858 6.4165 4.08329V6.99996C6.41654 7.15466 6.47802 7.30301 6.58742 7.41238L8.33742 9.16238C8.44744 9.26863 8.59479 9.32743 8.74774 9.3261C8.90069 9.32477 9.04699 9.26343 9.15515 9.15527C9.2633 9.04712 9.32465 8.90081 9.32598 8.74786C9.32731 8.59491 9.26851 8.44756 9.16225 8.33754L7.58317 6.75846V4.08329C7.58317 3.92858 7.52171 3.78021 7.41232 3.67081C7.30292 3.56142 7.15455 3.49996 6.99984 3.49996Z" fill="#49B3BA"/>
</svg>
