<svg width="25" height="25" viewBox="0 0 25 25" fill="none" xmlns="http://www.w3.org/2000/svg">
<path d="M21.4885 16.6655C21.4074 16.5679 21.3279 16.4702 21.2497 16.376C20.1755 15.0767 19.5256 14.2925 19.5256 10.6143C19.5256 8.70996 19.07 7.14746 18.1721 5.97559C17.51 5.10986 16.615 4.45312 15.4353 3.96777C15.4201 3.95933 15.4065 3.94825 15.3952 3.93506C14.9709 2.51416 13.8098 1.5625 12.5002 1.5625C11.1906 1.5625 10.03 2.51416 9.60569 3.93359C9.59436 3.9463 9.58099 3.95703 9.56613 3.96533C6.8132 5.09863 5.47531 7.27295 5.47531 10.6128C5.47531 14.2925 4.82639 15.0767 3.75119 16.3745C3.67307 16.4688 3.59348 16.5645 3.51242 16.6641C3.30305 16.9166 3.17039 17.2238 3.13015 17.5493C3.08992 17.8748 3.14378 18.2051 3.28537 18.501C3.58664 19.1357 4.22873 19.5298 4.96164 19.5298H20.0442C20.7737 19.5298 21.4113 19.1362 21.7136 18.5044C21.8558 18.2084 21.9102 17.8779 21.8703 17.552C21.8304 17.2261 21.6979 16.9184 21.4885 16.6655ZM12.5002 23.4375C13.2058 23.4369 13.8981 23.2454 14.5036 22.8832C15.1092 22.5211 15.6054 22.0017 15.9397 21.3804C15.9554 21.3506 15.9632 21.3172 15.9622 21.2836C15.9613 21.2499 15.9517 21.217 15.9343 21.1882C15.9169 21.1594 15.8923 21.1355 15.863 21.1189C15.8336 21.1024 15.8005 21.0937 15.7668 21.0938H9.23459C9.20086 21.0936 9.16768 21.1022 9.13827 21.1188C9.10886 21.1353 9.08423 21.1591 9.06678 21.188C9.04933 21.2168 9.03964 21.2497 9.03867 21.2835C9.0377 21.3172 9.04548 21.3506 9.06125 21.3804C9.3955 22.0017 9.89165 22.5209 10.4971 22.8831C11.1025 23.2453 11.7947 23.4368 12.5002 23.4375Z" fill="white"/>
</svg>
